# generated from PmQm by Jehee Lee
:FULLY-SPECIFIED
:DEGREES
298
root 2.05241 25.7363 -17.7101 166.687 12.1588 -177.1
RightUpLeg -59.5781 4.93994 -0.980926
RightLeg 78.2189 2.4501 12.4088
RightFoot -9.15956 -0.155713 4.90486
RightToes -0.000541893 -0.000659172 -0.000493268
Spine 14.7889 0.243308 3.66773
Spine1 29.8803 -0.423969 5.71795
HEad -23.1339 4.31845 -12.7587
LeftShoulder1 -3.88251e-019 -0 -3.92111e-022
LeftArm -30.9352 -6.4798 -85.6023
LeftForeArm 20.0688 2.18719 2.10576
LeftHand -0.760366 -6.0784 8.01658
RightShoulder 7.45443e-017 -2.42657e-020 1.96277e-018
RightArm -14.3024 13.6465 70.4633
RightForeArm 15.9431 10.2075 9.59531
RightHand -1.56542 11.363 -11.1977
LeftUpLeg -57.7079 -0.154115 3.18667
LeftLeg 86.3887 -0.314098 -1.57623
LeftFoot -15.9047 0.022261 -1.83305
LeftToes 3.91355e-005 3.11907e-005 -4.10385e-006
299
root 1.99016 25.5522 -17.5613 165.112 12.345 -177.137
RightUpLeg -58.6062 4.80301 -0.992472
RightLeg 78.7562 2.18422 11.5509
RightFoot -10.0177 -0.126603 5.06946
RightToes -0.000541893 -0.000659172 -0.000493268
Spine 14.3638 0.186456 3.61271
Spine1 29.0189 -0.467683 5.71485
HEad -23.3526 4.72699 -12.5861
LeftShoulder1 -3.88251e-019 -0 -3.92111e-022
LeftArm -31.6647 -5.92122 -85.13
LeftForeArm 17.7408 2.22277 2.22916
LeftHand -0.641811 -6.09741 6.80695
RightShoulder 7.45443e-017 -2.42657e-020 1.96277e-018
RightArm -16.2563 12.1261 70.4293
RightForeArm 17.7701 9.00385 9.44578
RightHand -1.63068 11.7549 -11.3939
LeftUpLeg -56.9153 -1.28567 4.11738
LeftLeg 87.2421 -0.327739 -4.28518
LeftFoot -15.138 -0.005685430002 -2.91504
LeftToes 3.91355e-005 3.11907e-005 -4.10385e-006
300
root 1.93146 25.4415 -17.3749 163.685 12.5236 -177.398
RightUpLeg -57.7054 5.06887 -1.42421
RightLeg 78.9017 1.75487 9.14334
RightFoot -10.2928 -0.118962 5.35429
RightToes -0.000541893 -0.000659172 -0.000493268
Spine 14.095 0.22931 3.50229
Spine1 28.4767 -0.31757 5.67132
HEad -23.6325 4.79248 -12.6436
LeftShoulder1 -3.88251e-019 -0 -3.92111e-022
LeftArm -31.8242 -6.09307 -84.6858
LeftForeArm 19.361 2.18998 2.32469
LeftHand -0.697686 -5.67576 7.63104
RightShoulder 7.45443e-017 -2.42657e-020 1.96277e-018
RightArm -16.7649 10.4869 70.285
RightForeArm 18.1606 9.21161 9.25678
RightHand -1.89635 12.7966 -12.4459
LeftUpLeg -56.0608 -2.2653 4.78647
LeftLeg 87.5527 -0.326659 -6.90599
LeftFoot -14.3696 -0.0146549 -3.81095
LeftToes 3.91355e-005 3.11907e-005 -4.10385e-006
301
root 1.91063 25.373 -17.1822 162.208 12.3718 -177.664
RightUpLeg -56.511 5.11576 -1.80651
RightLeg 78.7028 1.43829 7.05475
RightFoot -9.35886 -0.160194 5.58198
RightToes -0.000541893 -0.000659172 -0.000493268
Spine 13.9841 0.182808 3.52626
Spine1 28.2434 -0.388209 5.7934
HEad -24.1759 4.54415 -13.1681
LeftShoulder1 -3.88251e-019 -0 -3.92111e-022
LeftArm -31.4927 -6.73387 -84.7014
LeftForeArm 24.1772 2.09731 2.2532
LeftHand -0.876602 -5.16011 9.93391
RightShoulder 7.45443e-017 -2.42657e-020 1.96277e-018
RightArm -14.2765 9.02793 69.6563
RightForeArm 18.1888 11.2337 9.31272
RightHand -2.05206 13.2766 -13.0957
LeftUpLeg -54.9234 -3.06038 5.10926
LeftLeg 87.4974 -0.352609 -9.01328
LeftFoot -14.0125 -0.008772290009 -3.97638
LeftToes 3.91355e-005 3.11907e-005 -4.10385e-006
302
root 1.92436 25.3179 -17.0211 160.853 12.1875 -177.791
RightUpLeg -55.2604 5.00199 -1.80364
RightLeg 78.3967 1.37881 6.48126
RightFoot -8.06242 -0.211891 5.48908
RightToes -0.000541893 -0.000659172 -0.000493268
Spine 13.8392 0.0655147 3.62297
Spine1 27.9353 -0.612708 5.93372
HEad -24.3773 4.46634 -13.4667
LeftShoulder1 -3.88251e-019 -0 -3.92111e-022
LeftArm -30.9766 -7.09561 -84.8977
LeftForeArm 27.8626 2.0421 1.7913
LeftHand -0.914828 -4.92544 10.5721
RightShoulder 7.45443e-017 -2.42657e-020 1.96277e-018
RightArm -10.165 8.21005 68.9871
RightForeArm 18.3679 13.1295 9.35021
RightHand -1.96078 12.9512 -12.7464
LeftUpLeg -53.622 -3.43128 5.28871
LeftLeg 87.3462 -0.397081 -10.7618
LeftFoot -14.389 -0.0233411 -4.10969
LeftToes 3.91355e-005 3.11907e-005 -4.10385e-006
303
root 1.9507 25.2566 -16.912 159.834 12.2008 -177.862
RightUpLeg -54.393 4.82533 -1.60159
RightLeg 78.3283 1.42748 6.71912
RightFoot -7.4816 -0.22957 5.29699
RightToes -0.000541893 -0.000659172 -0.000493268
Spine 13.5836 -0.013821 3.61784
Spine1 27.4105 -0.735142 5.89023
HEad -23.869 4.73192 -12.9726
LeftShoulder1 -3.88251e-019 -0 -3.92111e-022
LeftArm -30.5831 -7.11731 -85.0616
LeftForeArm 29.0025 2.05933 1.16892
LeftHand -0.811683 -4.99804 9.35791
RightShoulder 7.45443e-017 -2.42657e-020 1.96277e-018
RightArm -8.75769 8.0887 68.8415
RightForeArm 20.123 12.9599 9.74511
RightHand -1.9187 12.8252 -12.5681
LeftUpLeg -52.5921 -3.35696 5.58305
LeftLeg 87.3159 -0.425715 -12.5637
LeftFoot -15.0041 -0.0587536 -4.63724
LeftToes 3.91355e-005 3.11907e-005 -4.10385e-006
304
root 1.98233 25.1975 -16.8686 159.265 12.1738 -177.889
RightUpLeg -53.9699 4.30183 -1.42168
RightLeg 78.5106 1.46167 7.04981
RightFoot -7.51635 -0.225841 5.23121
RightToes -0.000541893 -0.000659172 -0.000493268
Spine 13.2704 -0.0422762 3.55056
Spine1 26.7785 -0.75386 5.82098
HEad -23.0861 4.87413 -12.1792
LeftShoulder1 -3.88251e-019 -0 -3.92111e-022
LeftArm -30.3354 -7.34617 -85.4316
LeftForeArm 30.0198 2.06825 0.773433
LeftHand -0.789366 -5.02243 9.09141
RightShoulder 7.45443e-017 -2.42657e-020 1.96277e-018
RightArm -10.0302 8.10512 69.1629
RightForeArm 22.7051 11.6364 10.2476
RightHand -2.01264 12.975 -13.0539
LeftUpLeg -52.3047 -3.24605 6.17384
LeftLeg 87.5918 -0.383361 -15.1207
LeftFoot -14.8148 -0.0696392 -5.20489
LeftToes 3.91355e-005 3.11907e-005 -4.10385e-006
305
root 1.99877 25.149 -16.8818 159.059 12.0532 -177.803
RightUpLeg -53.8109 3.54171 -1.23652
RightLeg 78.7414 1.50671 7.49734
RightFoot -7.57931 -0.220196 5.08054
RightToes -0.000541893 -0.000659172 -0.000493268
Spine 12.9748 -0.00919095001 3.52068
Spine1 26.1879 -0.674054 5.90889
HEad -22.6628 4.52838 -11.5053
LeftShoulder1 -3.88251e-019 -0 -3.92111e-022
LeftArm -29.9488 -7.90609 -85.914
LeftForeArm 31.7165 2.04459 0.622301
LeftHand -0.881035 -4.88426 10.235
RightShoulder 7.45443e-017 -2.42657e-020 1.96277e-018
RightArm -11.5168 7.80595 69.6448
RightForeArm 23.3934 10.8331 10.3639
RightHand -2.0909 12.9914 -13.5293
LeftUpLeg -52.7088 -3.33723 6.95407
LeftLeg 88.1689 -0.215865 -18.4356
LeftFoot -13.6006 -0.04347 -6.32924
LeftToes 3.91355e-005 3.11907e-005 -4.10385e-006
306
root 1.96535 25.0842 -16.8959 158.697 12.0143 -177.661
RightUpLeg -53.532 2.96737 -1.07769
RightLeg 78.9908 1.54837 7.96236
RightFoot -7.57962 -0.211362 4.87384
RightToes -0.000541893 -0.000659172 -0.000493268
Spine 12.8807 0.054406 3.51503
Spine1 26.0031 -0.551039 6.07037
HEad -22.8557 3.8863 -10.8961
LeftShoulder1 -3.88251e-019 -0 -3.92111e-022
LeftArm -29.4839 -8.45539 -86.1337
LeftForeArm 32.4251 2.03419 0.583656
LeftHand -0.964823 -4.84318 11.2174
RightShoulder 7.45443e-017 -2.42657e-020 1.96277e-018
RightArm -12.7761 7.32235 70.2053
RightForeArm 20.6077 10.6924 10.2318
RightHand -2.21098 13.3566 -14.0077
LeftUpLeg -53.1316 -3.44529 7.64737
LeftLeg 88.7449 0.005428350002 -20.5315
LeftFoot -12.2235 0.005699340002 -8.75425
LeftToes 3.91355e-005 3.11907e-005 -4.10385e-006
307
root 1.89146 24.9954 -16.8584 157.83 12.0682 -177.537
RightUpLeg -52.8355 2.70773 -1.01082
RightLeg 79.211 1.55826 8.22423
RightFoot -7.57419 -0.212507 4.91968
RightToes -0.000541893 -0.000659172 -0.000493268
Spine 13.1019 0.0454212 3.54285
Spine1 26.4459 -0.589989 6.20106
HEad -23.6049 3.26009 -10.5363
LeftShoulder1 -3.88251e-019 -0 -3.92111e-022
LeftArm -29.4116 -8.66303 -86.1297
LeftForeArm 31.3335 2.06981 0.490055
LeftHand -0.99314 -5.00143 11.3697
RightShoulder 7.45443e-017 -2.42657e-020 1.96277e-018
RightArm -13.9209 6.9188 70.7761
RightForeArm 15.4352 10.8407 9.98264
RightHand -2.41391 14.2738 -14.5609
LeftUpLeg -53.1649 -3.38016 8.30315
LeftLeg 88.9928 0.0779064 -19.4863
LeftFoot -11.3042 0.0709659 -11.3135
LeftToes 3.91355e-005 3.11907e-005 -4.10385e-006
308
root 1.8205 24.9214 -16.7943 156.96 12.1156 -177.336
RightUpLeg -52.0614 2.74482 -0.914846
RightLeg 79.2656 1.55049 8.22698
RightFoot -7.51083 -0.223494 5.14803
RightToes -0.000541893 -0.000659172 -0.000493268
Spine 13.4172 -0.0250522 3.64957
Spine1 27.0747 -0.770586 6.36364
HEad -24.7194 2.6552 -10.3855
LeftShoulder1 -3.88251e-019 -0 -3.92111e-022
LeftArm -29.6258 -8.46801 -86.132
LeftForeArm 29.4174 2.14222 0.174636
LeftHand -0.960439 -5.20817 10.8033
RightShoulder 7.45443e-017 -2.42657e-020 1.96277e-018
RightArm -14.9349 6.56696 71.2574
RightForeArm 10.7223 11.0789 9.67522
RightHand -2.6901 15.3675 -15.3391
LeftUpLeg -53.1087 -3.38146 9.21071
LeftLeg 88.7192 -0.0581542 -16.5988
LeftFoot -10.5547 0.143439 -11.7962
LeftToes 3.91355e-005 3.11907e-005 -4.10385e-006
309
root 1.76766 24.8887 -16.7579 156.594 12.0846 -177.057
RightUpLeg -51.6644 3.08534 -0.817516
RightLeg 79.2005 1.51729 7.93454
RightFoot -7.49306 -0.233124 5.41711
RightToes -0.000541893 -0.000659172 -0.000493268
Spine 13.5856 -0.0490774 3.73497
Spine1 27.4133 -0.850349 6.51565
HEad -25.8999 2.03583 -9.90111
LeftShoulder1 -3.88251e-019 -0 -3.92111e-022
LeftArm -29.5881 -8.21522 -86.1059
LeftForeArm 27.8836 2.19873 -0.0723342
LeftHand -0.919133 -5.44052 10.1453
RightShoulder 7.45443e-017 -2.42657e-020 1.96277e-018
RightArm -15.9193 6.22032 71.7224
RightForeArm 7.22437 11.1975 9.43646
RightHand -3.10437 16.4704 -16.7416
LeftUpLeg -52.914 -3.78818 10.1928
LeftLeg 87.6411 -0.366003 -14.4886
LeftFoot -10.225 0.161319 -10.3357
LeftToes 3.91355e-005 3.11907e-005 -4.10385e-006
